<mxfile host="app.diagrams.net" modified="2023-07-16T03:46:23.446Z" agent="5.0 (Windows NT 10.0; Win64; x64) AppleWebKit/537.36 (KHTML, like Gecko) Chrome/114.0.0.0 Safari/537.36" etag="yC_vXb5Qt4JnZEPgdnj9" version="21.0.6" type="github">
  <diagram name="第 1 页" id="YamFY4KwuVml6V4tOWXJ">
    <mxGraphModel dx="1877" dy="541" grid="1" gridSize="10" guides="1" tooltips="1" connect="1" arrows="1" fold="1" page="1" pageScale="1" pageWidth="827" pageHeight="1169" math="0" shadow="0">
      <root>
        <mxCell id="0" />
        <mxCell id="1" parent="0" />
        <mxCell id="8n0osljR0vU8QNONf33Q-17" value="" style="rounded=0;whiteSpace=wrap;html=1;labelBackgroundColor=none;fillColor=none;" vertex="1" parent="1">
          <mxGeometry x="230" y="90" width="525" height="390" as="geometry" />
        </mxCell>
        <mxCell id="8n0osljR0vU8QNONf33Q-7" value="" style="rounded=0;whiteSpace=wrap;html=1;verticalAlign=top;" vertex="1" parent="1">
          <mxGeometry x="30" y="90" width="150" height="390" as="geometry" />
        </mxCell>
        <mxCell id="8n0osljR0vU8QNONf33Q-24" style="edgeStyle=orthogonalEdgeStyle;rounded=0;orthogonalLoop=1;jettySize=auto;html=1;entryX=0;entryY=0.5;entryDx=0;entryDy=0;" edge="1" parent="1" source="8n0osljR0vU8QNONf33Q-9" target="8n0osljR0vU8QNONf33Q-21">
          <mxGeometry relative="1" as="geometry" />
        </mxCell>
        <mxCell id="8n0osljR0vU8QNONf33Q-9" value="l1" style="text;html=1;strokeColor=none;fillColor=none;align=center;verticalAlign=middle;whiteSpace=wrap;rounded=0;" vertex="1" parent="1">
          <mxGeometry x="70" y="170" width="60" height="30" as="geometry" />
        </mxCell>
        <mxCell id="8n0osljR0vU8QNONf33Q-13" style="edgeStyle=orthogonalEdgeStyle;rounded=0;orthogonalLoop=1;jettySize=auto;html=1;entryX=0.5;entryY=1;entryDx=0;entryDy=0;" edge="1" parent="1" source="8n0osljR0vU8QNONf33Q-10" target="8n0osljR0vU8QNONf33Q-40">
          <mxGeometry relative="1" as="geometry">
            <mxPoint x="435" y="240" as="targetPoint" />
          </mxGeometry>
        </mxCell>
        <mxCell id="8n0osljR0vU8QNONf33Q-10" value="l2" style="text;html=1;strokeColor=none;fillColor=none;align=center;verticalAlign=middle;whiteSpace=wrap;rounded=0;" vertex="1" parent="1">
          <mxGeometry x="70" y="230" width="60" height="30" as="geometry" />
        </mxCell>
        <mxCell id="8n0osljR0vU8QNONf33Q-14" style="edgeStyle=orthogonalEdgeStyle;rounded=0;orthogonalLoop=1;jettySize=auto;html=1;entryX=0;entryY=0.5;entryDx=0;entryDy=0;" edge="1" parent="1" source="8n0osljR0vU8QNONf33Q-11" target="8n0osljR0vU8QNONf33Q-32">
          <mxGeometry relative="1" as="geometry">
            <mxPoint x="260" y="325" as="targetPoint" />
          </mxGeometry>
        </mxCell>
        <mxCell id="8n0osljR0vU8QNONf33Q-11" value="root" style="text;html=1;strokeColor=none;fillColor=none;align=center;verticalAlign=middle;whiteSpace=wrap;rounded=0;" vertex="1" parent="1">
          <mxGeometry x="70" y="300" width="60" height="30" as="geometry" />
        </mxCell>
        <mxCell id="8n0osljR0vU8QNONf33Q-38" style="edgeStyle=orthogonalEdgeStyle;rounded=0;orthogonalLoop=1;jettySize=auto;html=1;" edge="1" parent="1" source="8n0osljR0vU8QNONf33Q-15">
          <mxGeometry relative="1" as="geometry">
            <mxPoint x="330" y="360" as="targetPoint" />
          </mxGeometry>
        </mxCell>
        <mxCell id="8n0osljR0vU8QNONf33Q-52" style="edgeStyle=orthogonalEdgeStyle;rounded=0;orthogonalLoop=1;jettySize=auto;html=1;entryX=0.5;entryY=0;entryDx=0;entryDy=0;" edge="1" parent="1" source="8n0osljR0vU8QNONf33Q-15" target="8n0osljR0vU8QNONf33Q-45">
          <mxGeometry relative="1" as="geometry">
            <Array as="points">
              <mxPoint x="-10" y="385" />
              <mxPoint x="-10" y="30" />
              <mxPoint x="640" y="30" />
            </Array>
          </mxGeometry>
        </mxCell>
        <mxCell id="8n0osljR0vU8QNONf33Q-15" value="cursor" style="text;html=1;strokeColor=none;fillColor=none;align=center;verticalAlign=middle;whiteSpace=wrap;rounded=0;" vertex="1" parent="1">
          <mxGeometry x="70" y="370" width="60" height="30" as="geometry" />
        </mxCell>
        <mxCell id="8n0osljR0vU8QNONf33Q-20" style="edgeStyle=orthogonalEdgeStyle;rounded=0;orthogonalLoop=1;jettySize=auto;html=1;entryX=0.5;entryY=1;entryDx=0;entryDy=0;" edge="1" parent="1" source="8n0osljR0vU8QNONf33Q-19" target="8n0osljR0vU8QNONf33Q-45">
          <mxGeometry relative="1" as="geometry">
            <mxPoint x="625" y="240" as="targetPoint" />
          </mxGeometry>
        </mxCell>
        <mxCell id="8n0osljR0vU8QNONf33Q-19" value="sumNode" style="text;html=1;strokeColor=none;fillColor=none;align=center;verticalAlign=middle;whiteSpace=wrap;rounded=0;" vertex="1" parent="1">
          <mxGeometry x="70" y="440" width="60" height="30" as="geometry" />
        </mxCell>
        <mxCell id="8n0osljR0vU8QNONf33Q-21" value="" style="rounded=0;whiteSpace=wrap;html=1;" vertex="1" parent="1">
          <mxGeometry x="270" y="130" width="100" height="60" as="geometry" />
        </mxCell>
        <mxCell id="8n0osljR0vU8QNONf33Q-22" value="value:5" style="text;html=1;strokeColor=none;fillColor=none;align=center;verticalAlign=middle;whiteSpace=wrap;rounded=0;" vertex="1" parent="1">
          <mxGeometry x="290" y="140" width="60" height="20" as="geometry" />
        </mxCell>
        <mxCell id="8n0osljR0vU8QNONf33Q-62" style="edgeStyle=orthogonalEdgeStyle;rounded=0;orthogonalLoop=1;jettySize=auto;html=1;entryX=0.5;entryY=0;entryDx=0;entryDy=0;" edge="1" parent="1" source="8n0osljR0vU8QNONf33Q-23" target="8n0osljR0vU8QNONf33Q-55">
          <mxGeometry relative="1" as="geometry">
            <Array as="points">
              <mxPoint x="400" y="170" />
              <mxPoint x="400" y="520" />
              <mxPoint x="280" y="520" />
            </Array>
          </mxGeometry>
        </mxCell>
        <mxCell id="8n0osljR0vU8QNONf33Q-23" value="next:xx" style="text;html=1;strokeColor=none;fillColor=none;align=center;verticalAlign=middle;whiteSpace=wrap;rounded=0;" vertex="1" parent="1">
          <mxGeometry x="290" y="160" width="60" height="20" as="geometry" />
        </mxCell>
        <mxCell id="8n0osljR0vU8QNONf33Q-37" value="" style="group" vertex="1" connectable="0" parent="1">
          <mxGeometry x="280" y="295" width="100" height="60" as="geometry" />
        </mxCell>
        <mxCell id="8n0osljR0vU8QNONf33Q-32" value="" style="rounded=0;whiteSpace=wrap;html=1;movable=1;resizable=1;rotatable=1;deletable=1;editable=1;locked=0;connectable=1;" vertex="1" parent="8n0osljR0vU8QNONf33Q-37">
          <mxGeometry width="100" height="60" as="geometry" />
        </mxCell>
        <mxCell id="8n0osljR0vU8QNONf33Q-33" value="value:0" style="text;html=1;strokeColor=none;fillColor=none;align=center;verticalAlign=middle;whiteSpace=wrap;rounded=0;movable=1;resizable=1;rotatable=1;deletable=1;editable=1;locked=0;connectable=1;" vertex="1" parent="8n0osljR0vU8QNONf33Q-37">
          <mxGeometry x="20" y="10" width="60" height="25" as="geometry" />
        </mxCell>
        <mxCell id="8n0osljR0vU8QNONf33Q-34" value="next:xxl" style="text;html=1;strokeColor=none;fillColor=none;align=center;verticalAlign=middle;whiteSpace=wrap;rounded=0;movable=1;resizable=1;rotatable=1;deletable=1;editable=1;locked=0;connectable=1;" vertex="1" parent="8n0osljR0vU8QNONf33Q-37">
          <mxGeometry x="20" y="30" width="60" height="20" as="geometry" />
        </mxCell>
        <mxCell id="8n0osljR0vU8QNONf33Q-39" value="" style="group" vertex="1" connectable="0" parent="1">
          <mxGeometry x="420" y="130" width="100" height="60" as="geometry" />
        </mxCell>
        <mxCell id="8n0osljR0vU8QNONf33Q-40" value="" style="rounded=0;whiteSpace=wrap;html=1;movable=1;resizable=1;rotatable=1;deletable=1;editable=1;locked=0;connectable=1;" vertex="1" parent="8n0osljR0vU8QNONf33Q-39">
          <mxGeometry width="100" height="60" as="geometry" />
        </mxCell>
        <mxCell id="8n0osljR0vU8QNONf33Q-41" value="value:6" style="text;html=1;strokeColor=none;fillColor=none;align=center;verticalAlign=middle;whiteSpace=wrap;rounded=0;movable=1;resizable=1;rotatable=1;deletable=1;editable=1;locked=0;connectable=1;" vertex="1" parent="8n0osljR0vU8QNONf33Q-39">
          <mxGeometry x="20" y="10" width="60" height="25" as="geometry" />
        </mxCell>
        <mxCell id="8n0osljR0vU8QNONf33Q-42" value="next:xx" style="text;html=1;strokeColor=none;fillColor=none;align=center;verticalAlign=middle;whiteSpace=wrap;rounded=0;movable=1;resizable=1;rotatable=1;deletable=1;editable=1;locked=0;connectable=1;" vertex="1" parent="8n0osljR0vU8QNONf33Q-39">
          <mxGeometry x="20" y="30" width="60" height="20" as="geometry" />
        </mxCell>
        <mxCell id="8n0osljR0vU8QNONf33Q-44" value="" style="group" vertex="1" connectable="0" parent="1">
          <mxGeometry x="590" y="130" width="100" height="60" as="geometry" />
        </mxCell>
        <mxCell id="8n0osljR0vU8QNONf33Q-45" value="" style="rounded=0;whiteSpace=wrap;html=1;movable=1;resizable=1;rotatable=1;deletable=1;editable=1;locked=0;connectable=1;" vertex="1" parent="8n0osljR0vU8QNONf33Q-44">
          <mxGeometry width="100" height="60" as="geometry" />
        </mxCell>
        <mxCell id="8n0osljR0vU8QNONf33Q-46" value="value:1" style="text;html=1;strokeColor=none;fillColor=none;align=center;verticalAlign=middle;whiteSpace=wrap;rounded=0;movable=1;resizable=1;rotatable=1;deletable=1;editable=1;locked=0;connectable=1;" vertex="1" parent="8n0osljR0vU8QNONf33Q-44">
          <mxGeometry x="20" y="10" width="60" height="25" as="geometry" />
        </mxCell>
        <mxCell id="8n0osljR0vU8QNONf33Q-47" value="next:null" style="text;html=1;strokeColor=none;fillColor=none;align=center;verticalAlign=middle;whiteSpace=wrap;rounded=0;movable=1;resizable=1;rotatable=1;deletable=1;editable=1;locked=0;connectable=1;" vertex="1" parent="8n0osljR0vU8QNONf33Q-44">
          <mxGeometry x="20" y="30" width="60" height="20" as="geometry" />
        </mxCell>
        <mxCell id="8n0osljR0vU8QNONf33Q-49" style="edgeStyle=orthogonalEdgeStyle;rounded=0;orthogonalLoop=1;jettySize=auto;html=1;entryX=0.5;entryY=1;entryDx=0;entryDy=0;" edge="1" parent="1" source="8n0osljR0vU8QNONf33Q-34" target="8n0osljR0vU8QNONf33Q-45">
          <mxGeometry relative="1" as="geometry" />
        </mxCell>
        <mxCell id="8n0osljR0vU8QNONf33Q-51" value="x" style="text;html=1;strokeColor=none;fillColor=none;align=center;verticalAlign=middle;whiteSpace=wrap;rounded=0;fontSize=25;" vertex="1" parent="1">
          <mxGeometry x="180" y="369" width="50" height="30" as="geometry" />
        </mxCell>
        <mxCell id="8n0osljR0vU8QNONf33Q-54" value="" style="group" vertex="1" connectable="0" parent="1">
          <mxGeometry x="230" y="540" width="100" height="60" as="geometry" />
        </mxCell>
        <mxCell id="8n0osljR0vU8QNONf33Q-55" value="" style="rounded=0;whiteSpace=wrap;html=1;movable=1;resizable=1;rotatable=1;deletable=1;editable=1;locked=0;connectable=1;" vertex="1" parent="8n0osljR0vU8QNONf33Q-54">
          <mxGeometry width="100" height="60" as="geometry" />
        </mxCell>
        <mxCell id="8n0osljR0vU8QNONf33Q-56" value="value:xx" style="text;html=1;strokeColor=none;fillColor=none;align=center;verticalAlign=middle;whiteSpace=wrap;rounded=0;movable=1;resizable=1;rotatable=1;deletable=1;editable=1;locked=0;connectable=1;" vertex="1" parent="8n0osljR0vU8QNONf33Q-54">
          <mxGeometry x="20" y="10" width="60" height="25" as="geometry" />
        </mxCell>
        <mxCell id="8n0osljR0vU8QNONf33Q-57" value="next:xx" style="text;html=1;strokeColor=none;fillColor=none;align=center;verticalAlign=middle;whiteSpace=wrap;rounded=0;movable=1;resizable=1;rotatable=1;deletable=1;editable=1;locked=0;connectable=1;" vertex="1" parent="8n0osljR0vU8QNONf33Q-54">
          <mxGeometry x="20" y="30" width="60" height="20" as="geometry" />
        </mxCell>
        <mxCell id="8n0osljR0vU8QNONf33Q-58" value="" style="group" vertex="1" connectable="0" parent="1">
          <mxGeometry x="430" y="540" width="100" height="60" as="geometry" />
        </mxCell>
        <mxCell id="8n0osljR0vU8QNONf33Q-59" value="" style="rounded=0;whiteSpace=wrap;html=1;movable=1;resizable=1;rotatable=1;deletable=1;editable=1;locked=0;connectable=1;" vertex="1" parent="8n0osljR0vU8QNONf33Q-58">
          <mxGeometry width="100" height="60" as="geometry" />
        </mxCell>
        <mxCell id="8n0osljR0vU8QNONf33Q-60" value="value:xx" style="text;html=1;strokeColor=none;fillColor=none;align=center;verticalAlign=middle;whiteSpace=wrap;rounded=0;movable=1;resizable=1;rotatable=1;deletable=1;editable=1;locked=0;connectable=1;" vertex="1" parent="8n0osljR0vU8QNONf33Q-58">
          <mxGeometry x="20" y="10" width="60" height="25" as="geometry" />
        </mxCell>
        <mxCell id="8n0osljR0vU8QNONf33Q-61" value="next:xx" style="text;html=1;strokeColor=none;fillColor=none;align=center;verticalAlign=middle;whiteSpace=wrap;rounded=0;movable=1;resizable=1;rotatable=1;deletable=1;editable=1;locked=0;connectable=1;" vertex="1" parent="8n0osljR0vU8QNONf33Q-58">
          <mxGeometry x="20" y="30" width="60" height="20" as="geometry" />
        </mxCell>
        <mxCell id="8n0osljR0vU8QNONf33Q-64" style="edgeStyle=orthogonalEdgeStyle;rounded=0;orthogonalLoop=1;jettySize=auto;html=1;entryX=1;entryY=0.75;entryDx=0;entryDy=0;" edge="1" parent="1" source="8n0osljR0vU8QNONf33Q-42" target="8n0osljR0vU8QNONf33Q-59">
          <mxGeometry relative="1" as="geometry">
            <Array as="points">
              <mxPoint x="550" y="170" />
              <mxPoint x="550" y="585" />
            </Array>
          </mxGeometry>
        </mxCell>
        <mxCell id="8n0osljR0vU8QNONf33Q-67" value="" style="group" vertex="1" connectable="0" parent="1">
          <mxGeometry x="640" y="540" width="100" height="60" as="geometry" />
        </mxCell>
        <mxCell id="8n0osljR0vU8QNONf33Q-68" value="" style="rounded=0;whiteSpace=wrap;html=1;movable=1;resizable=1;rotatable=1;deletable=1;editable=1;locked=0;connectable=1;" vertex="1" parent="8n0osljR0vU8QNONf33Q-67">
          <mxGeometry width="100" height="60" as="geometry" />
        </mxCell>
        <mxCell id="8n0osljR0vU8QNONf33Q-69" value="value:0" style="text;html=1;strokeColor=none;fillColor=none;align=center;verticalAlign=middle;whiteSpace=wrap;rounded=0;movable=1;resizable=1;rotatable=1;deletable=1;editable=1;locked=0;connectable=1;" vertex="1" parent="8n0osljR0vU8QNONf33Q-67">
          <mxGeometry x="20" y="10" width="60" height="25" as="geometry" />
        </mxCell>
        <mxCell id="8n0osljR0vU8QNONf33Q-70" value="next:xxl" style="text;html=1;strokeColor=none;fillColor=none;align=center;verticalAlign=middle;whiteSpace=wrap;rounded=0;movable=1;resizable=1;rotatable=1;deletable=1;editable=1;locked=0;connectable=1;" vertex="1" parent="8n0osljR0vU8QNONf33Q-67">
          <mxGeometry x="20" y="30" width="60" height="20" as="geometry" />
        </mxCell>
        <mxCell id="8n0osljR0vU8QNONf33Q-71" style="edgeStyle=orthogonalEdgeStyle;rounded=0;orthogonalLoop=1;jettySize=auto;html=1;entryX=0.5;entryY=0;entryDx=0;entryDy=0;" edge="1" parent="1" source="8n0osljR0vU8QNONf33Q-47" target="8n0osljR0vU8QNONf33Q-68">
          <mxGeometry relative="1" as="geometry">
            <Array as="points">
              <mxPoint x="730" y="170" />
              <mxPoint x="730" y="520" />
              <mxPoint x="690" y="520" />
            </Array>
          </mxGeometry>
        </mxCell>
      </root>
    </mxGraphModel>
  </diagram>
</mxfile>
